<?xml version="1.0" standalone="no"?>
<!DOCTYPE svg PUBLIC "-//W3C//DTD SVG 20010904//EN"
 "http://www.w3.org/TR/2001/REC-SVG-20010904/DTD/svg10.dtd">
<svg version="1.0" xmlns="http://www.w3.org/2000/svg"
 width="599.000000pt" height="599.000000pt" viewBox="0 0 599.000000 599.000000"
 preserveAspectRatio="xMidYMid meet">
<metadata>
Created by potrace 1.14, written by Peter Selinger 2001-2017
</metadata>
<g transform="translate(0.000000,599.000000) scale(0.100000,-0.100000)"
fill="#000000" stroke="none">
<path d="M2269 4973 c-738 -741 -802 -812 -919 -1007 -160 -267 -255 -591
-267 -911 -28 -757 391 -1457 1072 -1790 184 -90 433 -163 615 -180 36 -3 75
-8 88 -11 l23 -5 -2 -387 -2 -387 118 -3 118 -3 -5 391 -5 390 31 4 c17 3 56
8 86 11 78 8 243 43 320 66 524 159 946 521 1180 1012 255 537 250 1145 -15
1677 -131 264 -155 291 -974 1113 -405 405 -738 737 -741 737 -4 0 -328 -323
-721 -717z m1236 -429 c52 -26 87 -91 83 -153 -4 -55 -22 -69 -74 -55 -34 8
-38 13 -49 57 -15 59 -31 76 -76 83 -26 4 -41 1 -59 -14 -25 -20 -25 -23 -28
-195 l-3 -174 31 -27 c56 -47 128 -27 166 45 18 36 12 49 -25 49 -37 0 -64 21
-55 43 5 14 19 17 83 17 42 0 82 -4 89 -8 9 -7 12 -39 10 -128 l-3 -119 -30 0
c-22 0 -31 5 -33 20 -7 44 -11 45 -63 10 -64 -44 -119 -46 -196 -10 -87 40
-93 57 -93 268 0 127 4 187 14 210 13 32 65 79 108 97 39 16 158 7 203 -16z
m0 -1110 c52 -26 87 -91 83 -153 -4 -55 -22 -69 -74 -55 -34 8 -38 13 -49 57
-15 59 -31 76 -77 84 -30 4 -41 1 -62 -20 -26 -26 -26 -27 -26 -192 l0 -167
29 -29 c48 -48 110 -35 157 32 29 43 25 59 -15 59 -37 0 -64 21 -55 43 5 14
19 17 79 17 110 0 105 6 105 -125 0 -87 -3 -115 -15 -125 -17 -14 -43 -7 -50
15 -3 8 -7 22 -10 30 -3 11 -16 7 -56 -20 -64 -44 -119 -46 -196 -10 -87 40
-93 57 -93 268 0 127 4 187 14 210 13 32 65 79 108 97 39 16 158 7 203 -16z
m0 -1110 c52 -27 87 -91 83 -154 l-3 -45 -54 0 -54 0 -14 55 c-7 30 -21 61
-30 68 -28 21 -81 15 -108 -13 -25 -24 -25 -27 -25 -190 l0 -167 29 -29 c48
-48 110 -35 157 32 29 43 25 59 -15 59 -37 0 -64 21 -55 43 5 14 19 17 79 17
110 0 105 6 105 -125 0 -87 -3 -115 -15 -125 -17 -14 -43 -7 -50 15 -3 8 -7
22 -10 30 -3 11 -16 7 -56 -20 -64 -44 -119 -46 -196 -10 -87 40 -93 57 -93
268 0 127 4 187 14 210 13 32 65 79 108 97 39 16 158 7 203 -16z"/>
</g>
</svg>
