<svg xmlns="http://www.w3.org/2000/svg" width="552" height="531.867" viewBox="0 0 552 531.867">
  <g id="the-power-of-solar" transform="translate(-1464.932 -573.341)">
    <path id="Path_3181" data-name="Path 3181" d="M2004.345,897.988,1776.7,765.561,1506.528,933.309,1738.579,1068.3a20.468,20.468,0,0,0,21.088-.3L2004.6,915.92A10.463,10.463,0,0,0,2004.345,897.988Z" transform="translate(7.386 34.132)" fill="#141315" opacity="0.5" style="mix-blend-mode: multiply;isolation: isolate"/>
    <path id="Path_3182" data-name="Path 3182" d="M1488.725,885.016V734.105l59.179-34.832,25.133,3.3,95.42,94.216v191.92l-34.432-19.879v.071Z" transform="translate(4.225 22.361)" fill="#e8e8e8"/>
    <path id="Path_3183" data-name="Path 3183" d="M1641.355,799.6l24.307-14.034v-.507l2.061-.683,173.036-99.9V723.2l42.814-14.179v142.65L1684.169,966.8v-.176l-42.814,24.719Z" transform="translate(31.327 19.734)" fill="#a3a3a3"/>
    <path id="Path_3184" data-name="Path 3184" d="M1804.778,573.341,1913.7,734.01,1658.926,880.6,1553.36,724.874Z" transform="translate(15.702)" fill="#f07600"/>
    <path id="Path_3185" data-name="Path 3185" d="M1569.062,724.874l-104.13,43.716,46.486-30.385,212.516-128.231,96.545-36.632Z" transform="translate(0)" fill="#eb6800"/>
    <path id="Path_3186" data-name="Path 3186" d="M1897.808,709.783l-.879,8.944-254.1,148.7.172-11.053Z" transform="translate(31.589 24.227)" fill="#fff"/>
    <path id="Path_3187" data-name="Path 3187" d="M1658.754,868.807,1553.36,711.343v-9.319l105.566,155.725Z" transform="translate(15.702 22.85)" fill="#fff"/>
    <path id="Path_3188" data-name="Path 3188" d="M1569.062,711.343l-104.13,42.1V745.74l104.13-43.716Z" transform="translate(0 22.85)" fill="#fff"/>
    <g id="Group_1108" data-name="Group 1108" transform="translate(1653.93 632.935)">
      <path id="Path_3189" data-name="Path 3189" d="M1687.385,796.14l146.938-84.83-61.954-87.361-146.938,84.83Z" transform="translate(-1625.431 -623.949)" fill="#fff"/>
      <path id="Path_3190" data-name="Path 3190" d="M1689.623,787.967l134.448-77.62-56.688-79.935-134.448,77.62Z" transform="translate(-1624.099 -622.801)" fill="#335ea8"/>
      <path id="Path_3191" data-name="Path 3191" d="M1783.782,661.308l-65.1,37.021-26.268-36.218Z" transform="translate(-1613.537 -617.315)" fill="#174795"/>
      <path id="Path_3192" data-name="Path 3192" d="M1723.582,695.411l-65.1,37.021-26.268-36.218Z" transform="translate(-1624.227 -611.26)" fill="#174795"/>
      <path id="Path_3193" data-name="Path 3193" d="M1749.641,733.374l-65.1,37.021-27.266-39.749Z" transform="translate(-1619.777 -605.003)" fill="#174795"/>
      <path id="Path_3194" data-name="Path 3194" d="M1808.952,697.333l-65.1,37.021-26.268-36.218Z" transform="translate(-1609.068 -610.918)" fill="#174795"/>
      <line id="Line_18" data-name="Line 18" x1="134.476" y2="77.58" transform="translate(35.574 45.353)" fill="none" stroke="#fff" stroke-linecap="round" stroke-linejoin="round" stroke-width="7.287"/>
      <line id="Line_19" data-name="Line 19" x1="134.476" y2="77.58" transform="translate(28.831 34.6)" fill="none" stroke="#fff" stroke-linecap="round" stroke-linejoin="round" stroke-width="1.822" opacity="0.56"/>
      <line id="Line_20" data-name="Line 20" x1="134.476" y2="77.58" transform="translate(20.906 24.486)" fill="none" stroke="#fff" stroke-linecap="round" stroke-linejoin="round" stroke-width="1.822" opacity="0.56"/>
      <line id="Line_21" data-name="Line 21" x1="134.476" y2="77.58" transform="translate(12.982 14.373)" fill="none" stroke="#fff" stroke-linecap="round" stroke-linejoin="round" stroke-width="1.822" opacity="0.56"/>
      <line id="Line_22" data-name="Line 22" x1="134.476" y2="77.58" transform="translate(57.519 75.758)" fill="none" stroke="#fff" stroke-linecap="round" stroke-linejoin="round" stroke-width="1.822" opacity="0.56"/>
      <line id="Line_23" data-name="Line 23" x1="134.476" y2="77.58" transform="translate(49.595 65.645)" fill="none" stroke="#fff" stroke-linecap="round" stroke-linejoin="round" stroke-width="1.822" opacity="0.56"/>
      <line id="Line_24" data-name="Line 24" x1="134.476" y2="77.58" transform="translate(41.67 55.531)" fill="none" stroke="#fff" stroke-linecap="round" stroke-linejoin="round" stroke-width="1.822" opacity="0.56"/>
      <line id="Line_25" data-name="Line 25" x1="56.688" y1="79.935" transform="translate(78.692 46.069)" fill="none" stroke="#fff" stroke-linecap="round" stroke-linejoin="round" stroke-width="7.287"/>
      <line id="Line_26" data-name="Line 26" x1="56.688" y1="79.935" transform="translate(99.065 33.91)" fill="none" stroke="#fff" stroke-linecap="round" stroke-linejoin="round" stroke-width="1.822" opacity="0.56"/>
      <line id="Line_27" data-name="Line 27" x1="56.688" y1="79.935" transform="translate(114.687 24.892)" fill="none" stroke="#fff" stroke-linecap="round" stroke-linejoin="round" stroke-width="1.822" opacity="0.56"/>
      <line id="Line_28" data-name="Line 28" x1="56.688" y1="79.935" transform="translate(130.308 15.874)" fill="none" stroke="#fff" stroke-linecap="round" stroke-linejoin="round" stroke-width="1.822" opacity="0.56"/>
      <line id="Line_29" data-name="Line 29" x1="56.688" y1="79.935" transform="translate(26.77 72.384)" fill="none" stroke="#fff" stroke-linecap="round" stroke-linejoin="round" stroke-width="1.822" opacity="0.56"/>
      <line id="Line_30" data-name="Line 30" x1="56.688" y1="79.935" transform="translate(42.392 63.366)" fill="none" stroke="#fff" stroke-linecap="round" stroke-linejoin="round" stroke-width="1.822" opacity="0.56"/>
      <line id="Line_31" data-name="Line 31" x1="56.688" y1="79.935" transform="translate(58.014 54.348)" fill="none" stroke="#fff" stroke-linecap="round" stroke-linejoin="round" stroke-width="1.822" opacity="0.56"/>
      <path id="Path_3195" data-name="Path 3195" d="M1786.292,703.465" transform="translate(-1596.867 -609.829)" fill="none" stroke="#fff" stroke-linecap="round" stroke-linejoin="round" stroke-width="1.822" opacity="0.56"/>
    </g>
    <g id="Group_1109" data-name="Group 1109" transform="translate(1504.055 805.459)">
      <path id="Path_3196" data-name="Path 3196" d="M1530.048,840.376l-31.892-18.413V770.458l31.892,18.413Z" transform="translate(-1498.156 -770.458)" fill="#464545"/>
      <path id="Path_3197" data-name="Path 3197" d="M1529.208,839.891v-51.5l-26.323-15.2v51.5Z" transform="translate(-1497.316 -769.973)" fill="#fff"/>
      <path id="Path_3198" data-name="Path 3198" d="M1528.234,831.252V792.37L1508.362,780.9v38.882Z" transform="translate(-1496.344 -768.604)" fill="#464545"/>
    </g>
    <g id="Group_1110" data-name="Group 1110" transform="translate(1614.357 863.556)">
      <path id="Path_3199" data-name="Path 3199" d="M1623.717,889.713,1591.825,871.3V819.794l31.892,18.413Z" transform="translate(-1591.825 -819.794)" fill="#464545"/>
      <path id="Path_3200" data-name="Path 3200" d="M1622.877,889.228v-51.5l-26.323-15.2v51.5Z" transform="translate(-1590.985 -819.309)" fill="#fff"/>
      <path id="Path_3201" data-name="Path 3201" d="M1621.9,880.588V841.706l-19.872-11.473v38.882Z" transform="translate(-1590.013 -817.941)" fill="#464545"/>
    </g>
    <g id="Group_1111" data-name="Group 1111" transform="translate(1719.838 861.841)">
      <path id="Path_3202" data-name="Path 3202" d="M1681.4,888.256l31.892-18.413V818.338L1681.4,836.75Z" transform="translate(-1681.401 -818.338)" fill="#464545"/>
      <path id="Path_3203" data-name="Path 3203" d="M1681.4,887.771v-51.5l26.323-15.2v51.5Z" transform="translate(-1681.401 -817.853)" fill="#fff"/>
      <path id="Path_3204" data-name="Path 3204" d="M1681.4,879.132V840.25l19.872-11.473v38.882Z" transform="translate(-1681.401 -816.484)" fill="#464545"/>
    </g>
    <g id="Group_1112" data-name="Group 1112" transform="translate(1789.992 822.685)">
      <path id="Path_3205" data-name="Path 3205" d="M1740.976,855l31.892-18.413V785.086L1740.976,803.5Z" transform="translate(-1740.976 -785.086)" fill="#464545"/>
      <path id="Path_3206" data-name="Path 3206" d="M1740.976,854.519v-51.5l26.323-15.2v51.5Z" transform="translate(-1740.976 -784.601)" fill="#fff"/>
      <path id="Path_3207" data-name="Path 3207" d="M1740.978,845.88V807l19.872-11.473v38.882Z" transform="translate(-1740.976 -783.232)" fill="#464545"/>
    </g>
    <g id="Group_1113" data-name="Group 1113" transform="translate(1860.146 783.529)">
      <path id="Path_3208" data-name="Path 3208" d="M1800.551,821.752l31.892-18.413V751.834l-31.892,18.413Z" transform="translate(-1800.551 -751.834)" fill="#464545"/>
      <path id="Path_3209" data-name="Path 3209" d="M1800.551,821.267v-51.5l26.323-15.2v51.5Z" transform="translate(-1800.551 -751.349)" fill="#fff"/>
      <path id="Path_3210" data-name="Path 3210" d="M1800.553,812.628V773.746l19.872-11.473v38.882Z" transform="translate(-1800.551 -749.981)" fill="#464545"/>
    </g>
    <path id="Path_3211" data-name="Path 3211" d="M1668.472,968.005v-20.47L1488.644,843.823v20.436Z" transform="translate(4.21 48.028)" fill="#2e2e2d"/>
    <path id="Path_3212" data-name="Path 3212" d="M1641.355,973.431v-20.47l242.219-139.7v20.423Z" transform="translate(31.327 42.602)" fill="#2e2e2d"/>
    <g id="Group_1117" data-name="Group 1117" transform="translate(1726.89 914.881)">
      <path id="Path_3213" data-name="Path 3213" d="M1748.922,911.149c0,9.424-8.59,20.242-19.34,20.242s-21.573-8.654-21.573-18.078,8.714-17.064,19.463-17.064S1748.922,901.725,1748.922,911.149Z" transform="translate(-1683.728 -857.543)" fill="#449b23"/>
      <path id="Path_3214" data-name="Path 3214" d="M1726.313,986.753h0a3.4,3.4,0,0,1-3.391-3.391V909.714a3.4,3.4,0,0,1,3.391-3.391h0a3.4,3.4,0,0,1,3.393,3.391v73.647A3.4,3.4,0,0,1,1726.313,986.753Z" transform="translate(-1681.08 -855.754)" fill="#2e2e2d"/>
      <path id="Path_3215" data-name="Path 3215" d="M1741.77,899.091c0,13.647-9.237,28.227-24.8,28.227s-29.424-10.287-29.424-23.934,10.475-29,26.041-29S1741.77,885.443,1741.77,899.091Z" transform="translate(-1687.362 -861.426)" fill="#449b23"/>
      <path id="Path_3216" data-name="Path 3216" d="M1766.028,897.322c0,13.647-12.619,21.051-28.185,21.051s-28.186-11.063-28.186-24.711,12.619-24.711,28.186-24.711S1766.028,883.674,1766.028,897.322Z" transform="translate(-1683.435 -862.39)" fill="#449b23"/>
      <g id="Group_1116" data-name="Group 1116" transform="translate(41.982 67.811)">
        <g id="Group_1115" data-name="Group 1115">
          <g id="Group_1114" data-name="Group 1114">
            <path id="Path_3217" data-name="Path 3217" d="M1727.167,940.881a73.619,73.619,0,0,0,31.634-14.5c3.343-2.6-1.35-7.231-4.657-4.658a66.856,66.856,0,0,1-28.728,12.81c-4.159.8-2.4,7.146,1.751,6.353Z" transform="translate(-1723.041 -920.965)" fill="#2e2e2d"/>
          </g>
        </g>
      </g>
      <path id="Path_3218" data-name="Path 3218" d="M1772.03,925.986c0,9.576-8.855,17.34-19.778,17.34s-19.777-7.764-19.777-17.34,12.6-17.024,23.527-17.024S1772.03,916.409,1772.03,925.986Z" transform="translate(-1679.384 -855.286)" fill="#449b23"/>
      <path id="Path_3219" data-name="Path 3219" d="M1731.156,868.271c7.276,6.226,7.419,18,.318,26.3s-18.756,9.981-26.032,3.755-4.742-20.644,2.359-28.945S1723.878,862.046,1731.156,868.271Z" transform="translate(-1684.959 -863.38)" fill="#449b23"/>
      <path id="Path_3220" data-name="Path 3220" d="M1766.031,933.738c0,6.527-5.949,14.02-13.394,14.02s-14.942-5.994-14.942-12.521,6.035-11.818,13.481-11.818S1766.031,927.211,1766.031,933.738Z" transform="translate(-1678.457 -852.719)" fill="#449b23"/>
      <ellipse id="Ellipse_25" data-name="Ellipse 25" cx="8.66" cy="5.775" rx="8.66" ry="5.775" transform="translate(53.8 68.668) rotate(-38.422)" fill="#73aa1f"/>
      <ellipse id="Ellipse_26" data-name="Ellipse 26" cx="8.659" cy="5.776" rx="8.659" ry="5.776" transform="translate(25.96 6.869) rotate(-19.017)" fill="#73aa1f"/>
      <ellipse id="Ellipse_27" data-name="Ellipse 27" cx="17.281" cy="11.525" rx="17.281" ry="11.525" transform="translate(0 30.641) rotate(-33.656)" fill="#73aa1f"/>
    </g>
    <g id="Group_1118" data-name="Group 1118" transform="translate(1747.451 828.773)">
      <ellipse id="Ellipse_28" data-name="Ellipse 28" cx="24.926" cy="13.381" rx="24.926" ry="13.381" transform="translate(97.706 145.453)" fill="#161615" opacity="0.19" style="mix-blend-mode: multiply;isolation: isolate"/>
      <ellipse id="Ellipse_29" data-name="Ellipse 29" cx="24.926" cy="13.381" rx="24.926" ry="13.381" transform="translate(0 202.318)" fill="#161615" opacity="0.19" style="mix-blend-mode: multiply;isolation: isolate"/>
      <path id="Path_3221" data-name="Path 3221" d="M1809.491,933.991h0a3.331,3.331,0,0,1-3.321-3.322V883.779a3.33,3.33,0,0,1,3.321-3.321h0a3.331,3.331,0,0,1,3.322,3.321v46.891A3.331,3.331,0,0,1,1809.491,933.991Z" transform="translate(-1686.859 -774.239)" fill="#2e2e2d"/>
      <path id="Path_3222" data-name="Path 3222" d="M1845.482,854.317a41.455,41.455,0,0,0,.362-5.464A38.96,38.96,0,0,0,1839,826.491a32.9,32.9,0,0,0,.91-7.7c0-15.762-10.992-28.54-24.552-28.54s-24.552,12.778-24.552,28.54a32.913,32.913,0,0,0,.911,7.7,38.952,38.952,0,0,0-6.842,22.362,41.247,41.247,0,0,0,.362,5.464c-7.5,6.394-12.124,15.16-12.124,24.835,0,19.57,18.914,35.433,42.245,35.433s42.245-15.863,42.245-35.433C1857.605,869.477,1852.978,860.711,1845.482,854.317Z" transform="translate(-1692.728 -790.256)" fill="#73aa1f"/>
      <path id="Path_3223" data-name="Path 3223" d="M1841.181,853.989a41.455,41.455,0,0,0,.362-5.464,38.96,38.96,0,0,0-6.842-22.362,32.9,32.9,0,0,0,.91-7.7c0-11.888-6.253-22.072-15.142-26.365-9.41,58.671,17.844,85.333-23.13,120.233a49.576,49.576,0,0,0,13.72,1.921c23.332,0,42.245-15.863,42.245-35.433C1853.3,869.149,1848.676,860.383,1841.181,853.989Z" transform="translate(-1688.427 -789.928)" fill="#449b23"/>
    </g>
    <path id="Path_3224" data-name="Path 3224" d="M1539.878,790.585V892.147l37.066,21.4v-.083l8.838,5.1V817Z" transform="translate(13.308 38.575)" fill="#464545"/>
    <path id="Path_3225" data-name="Path 3225" d="M1550.647,898.368l24.384,14.078v-.083l8.838,5.1V815.9l-33.223-19.121Z" transform="translate(15.22 39.676)" fill="#fff"/>
    <path id="Path_3226" data-name="Path 3226" d="M1579.349,845.375l-21.965-12.681V808.366l21.965,12.681Z" transform="translate(16.416 41.732)" fill="#464545"/>
    <path id="Path_3227" data-name="Path 3227" d="M1554.034,849.4h0a3.2,3.2,0,0,1-1.585-2.461v-6.989c0-.871.714-1.192,1.585-.71h0a3.2,3.2,0,0,1,1.585,2.46v6.99C1555.619,849.562,1554.907,849.883,1554.034,849.4Z" transform="translate(15.54 47.175)" fill="#464545"/>
    <path id="Path_3228" data-name="Path 3228" d="M1494.142,884.341v19.286l90.344,52.16,38.121-22.009V914.491Z" transform="translate(5.187 55.223)" fill="#2e2e2d"/>
    <path id="Path_3229" data-name="Path 3229" d="M1622.607,917.81l-90.343-52.16-38.122,22.009,90.344,52.16Z" transform="translate(5.187 51.904)" fill="#a3a3a3"/>
  </g>
</svg>
